<svg id="Layer_1" viewBox="0 0 24 24" xmlns="http://www.w3.org/2000/svg" data-name="Layer 1"><path d="m4.5 18c1.654 0 3-1.346 3-3s-1.346-3-3-3-3 1.346-3 3 1.346 3 3 3zm0-5c1.103 0 2 .897 2 2s-.897 2-2 2-2-.897-2-2 .897-2 2-2zm12 2c0 1.654 1.346 3 3 3s3-1.346 3-3-1.346-3-3-3-3 1.346-3 3zm3-2c1.103 0 2 .897 2 2s-.897 2-2 2-2-.897-2-2 .897-2 2-2zm4.5 10.5c0 .276-.224.5-.5.5s-.5-.224-.5-.5c0-1.93-1.57-3.5-3.5-3.5s-3.5 1.57-3.5 3.5c0 .262-.203.48-.465.499-.012 0-.023.001-.035.001-.247 0-.46-.182-.495-.429-.209-1.466-1.501-2.571-3.005-2.571s-2.796 1.105-3.005 2.571c-.036.26-.264.449-.53.428-.262-.019-.465-.236-.465-.499 0-1.93-1.57-3.5-3.5-3.5s-3.5 1.57-3.5 3.5c0 .276-.224.5-.5.5s-.5-.224-.5-.5c0-2.482 2.019-4.5 4.5-4.5 1.867 0 3.473 1.144 4.153 2.767.732-1.07 1.973-1.767 3.347-1.767s2.614.697 3.347 1.767c.681-1.624 2.286-2.767 4.153-2.767 2.481 0 4.5 2.019 4.5 4.5zm-14.5-7c0 1.378 1.121 2.5 2.5 2.5s2.5-1.122 2.5-2.5-1.121-2.5-2.5-2.5-2.5 1.122-2.5 2.5zm4 0c0 .827-.673 1.5-1.5 1.5s-1.5-.673-1.5-1.5.673-1.5 1.5-1.5 1.5.673 1.5 1.5zm-6-7.5c1.103 0 2-.897 2-2 0-.122 0-.323-1.294-4h3.294v8h-2.5c-.276 0-.5.224-.5.5s.224.5.5.5h6c.276 0 .5-.224.5-.5s-.224-.5-.5-.5h-2.5v-8h3.293.019s-1.312 3.946-1.312 3.999c0 1.103.897 2 2 2s2-.897 2-2c0-.134 0-.317-1.292-3.997-.211-.6-.779-1.003-1.415-1.003h-3.293v-1.499c0-.276-.224-.5-.5-.5s-.5.224-.5.5v1.5h-3.279c-.646 0-1.219.412-1.423 1.025 0 0-1.298 3.921-1.298 3.975 0 1.103.897 2 2 2zm10-2h-1.973l.987-2.951c.888 2.549.979 2.94.985 2.951zm-9.987-2.956c.685 1.964.964 2.844.987 2.956h-1.973l.985-2.956z"/></svg>