<svg xmlns="http://www.w3.org/2000/svg"><symbol viewBox="0 0 24.006002 24" id="calendario-mazo-legal">
  <path d="m18.598,17.891l2.293-2.293.435.435c.098.098.226.146.354.146s.256-.049.354-.146c.195-.195.195-.512,0-.707l-4.68-4.68c-.195-.195-.512-.195-.707,0s-.195.512,0,.707l.409.409-5.293,5.293-.409-.409c-.195-.195-.512-.195-.707,0s-.195.512,0,.707l4.68,4.68c.098.098.226.146.354.146s.256-.049.354-.146c.195-.195.195-.512,0-.707l-.435-.435,2.293-2.293,5.255,5.255c.098.098.226.146.354.146s.256-.049.354-.146c.195-.195.195-.512,0-.707l-5.255-5.255Zm-6.128-.128l5.293-5.293,2.421,2.421-5.293,5.293-2.421-2.421Zm7.03-15.763h-1.5V.5c0-.276-.224-.5-.5-.5s-.5.224-.5.5v1.5H7V.5c0-.276-.224-.5-.5-.5s-.5.224-.5.5v1.5h-1.5C2.019,2,0,4.019,0,6.5v13c0,2.481,2.019,4.5,4.5,4.5h9c.276,0,.5-.224.5-.5s-.224-.5-.5-.5H4.5c-1.93,0-3.5-1.57-3.5-3.5v-10.5h22v4.5c0,.276.224.5.5.5s.5-.224.5-.5v-7c0-2.481-2.019-4.5-4.5-4.5ZM1,8v-1.5c0-1.93,1.57-3.5,3.5-3.5h15c1.93,0,3.5,1.57,3.5,3.5v1.5H1Z"/>
</symbol><symbol viewBox="0 0 100 90" id="columna">
  <g stroke="#1f2937" stroke-width="2" stroke-linecap="round" stroke-linejoin="round" opacity="0.06">
    <line x1="20" y1="35" x2="100" y2="35"/>
    <line x1="25" y1="90" x2="95" y2="90"/>

    <line x1="40" y1="35" x2="40" y2="90"/>
    <line x1="60" y1="35" x2="60" y2="90"/>
    <line x1="80" y1="35" x2="80" y2="90"/>
  </g>
</symbol><symbol viewBox="0 0 24 24.0003" id="derecho-de-familia"><path d="m4.5 18c1.654 0 3-1.346 3-3s-1.346-3-3-3-3 1.346-3 3 1.346 3 3 3zm0-5c1.103 0 2 .897 2 2s-.897 2-2 2-2-.897-2-2 .897-2 2-2zm12 2c0 1.654 1.346 3 3 3s3-1.346 3-3-1.346-3-3-3-3 1.346-3 3zm3-2c1.103 0 2 .897 2 2s-.897 2-2 2-2-.897-2-2 .897-2 2-2zm4.5 10.5c0 .276-.224.5-.5.5s-.5-.224-.5-.5c0-1.93-1.57-3.5-3.5-3.5s-3.5 1.57-3.5 3.5c0 .262-.203.48-.465.499-.012 0-.023.001-.035.001-.247 0-.46-.182-.495-.429-.209-1.466-1.501-2.571-3.005-2.571s-2.796 1.105-3.005 2.571c-.036.26-.264.449-.53.428-.262-.019-.465-.236-.465-.499 0-1.93-1.57-3.5-3.5-3.5s-3.5 1.57-3.5 3.5c0 .276-.224.5-.5.5s-.5-.224-.5-.5c0-2.482 2.019-4.5 4.5-4.5 1.867 0 3.473 1.144 4.153 2.767.732-1.07 1.973-1.767 3.347-1.767s2.614.697 3.347 1.767c.681-1.624 2.286-2.767 4.153-2.767 2.481 0 4.5 2.019 4.5 4.5zm-14.5-7c0 1.378 1.121 2.5 2.5 2.5s2.5-1.122 2.5-2.5-1.121-2.5-2.5-2.5-2.5 1.122-2.5 2.5zm4 0c0 .827-.673 1.5-1.5 1.5s-1.5-.673-1.5-1.5.673-1.5 1.5-1.5 1.5.673 1.5 1.5zm-6-7.5c1.103 0 2-.897 2-2 0-.122 0-.323-1.294-4h3.294v8h-2.5c-.276 0-.5.224-.5.5s.224.5.5.5h6c.276 0 .5-.224.5-.5s-.224-.5-.5-.5h-2.5v-8h3.293.019s-1.312 3.946-1.312 3.999c0 1.103.897 2 2 2s2-.897 2-2c0-.134 0-.317-1.292-3.997-.211-.6-.779-1.003-1.415-1.003h-3.293v-1.499c0-.276-.224-.5-.5-.5s-.5.224-.5.5v1.5h-3.279c-.646 0-1.219.412-1.423 1.025 0 0-1.298 3.921-1.298 3.975 0 1.103.897 2 2 2zm10-2h-1.973l.987-2.951c.888 2.549.979 2.94.985 2.951zm-9.987-2.956c.685 1.964.964 2.844.987 2.956h-1.973l.985-2.956z"/></symbol><symbol viewBox="0 0 23.998665 24" id="equilibrio-balanza-izquierda"><path d="M23.961,10.306h0v-.002l-3.425-8.134c-.184-.436-.501-.779-.883-1.013-.046-.049-.102-.091-.169-.119-.026-.011-.054-.01-.082-.016-.448-.201-.96-.259-1.461-.125l-5.44,1.449V.5c0-.276-.224-.5-.5-.5s-.5,.224-.5,.5V2.613l-5.723,1.524c-1.042,.277-1.912,1.036-2.328,2.029L.039,14.307c-.026,.062-.039,.986-.039,.986,0,2.43,1.8,4.49,4.099,4.689,.137,.012,.272,.018,.407,.018,1.129,0,2.194-.412,3.034-1.183,.928-.851,1.46-2.06,1.46-3.317,0,0-.015-1.139-.043-1.203L5.088,5.592c.275-.227,.597-.396,.947-.489l5.465-1.456V23H4.5c-.276,0-.5,.224-.5,.5s.224,.5,.5,.5h15c.276,0,.5-.224,.5-.5s-.224-.5-.5-.5h-7V3.382l5.698-1.517c.137-.037,.275-.044,.409-.032l-3.568,8.474c-.026,.061-.039,.986-.039,.986,0,2.43,1.8,4.49,4.099,4.689,.137,.012,.272,.018,.407,.018,1.129,0,2.194-.412,3.034-1.183,.928-.851,1.46-2.06,1.46-3.317,0,0-.012-1.13-.039-1.194Zm-15.961,5.194c0,.979-.414,1.919-1.136,2.581-.731,.671-1.678,.992-2.679,.906-1.786-.155-3.186-1.778-3.186-3.694v-.292h7v.5Zm-.269-1.5H1.252l3.12-7.447,.024-.056,3.335,7.503ZM19.475,2.347c.048,.069,.105,.131,.138,.211l3.133,7.441h-6.494l3.222-7.653Zm3.525,9.153c0,.979-.414,1.919-1.136,2.581-.731,.67-1.679,.995-2.679,.906-1.786-.155-3.186-1.778-3.186-3.694v-.292h7v.5Z"/></symbol><symbol viewBox="0 0 24.001333 24.001333" id="hombre-abogado">
  <path d="m22.735,15.492c-.235-.591-.773-1-1.405-1.069l-3.33-.37v-1.553c0-.276-.224-.5-.5-.5s-.5.224-.5.5v1.441l-3.171-.353c-.691-.076-1.329.319-1.571.964,0,0-1.258,3.388-1.258,3.447,0,1.103.897,2,2,2s2-.897,2-2c0-.06-1.246-3.413-1.246-3.413l3.246.361v8.052h-2.5c-.276,0-.5.224-.5.5s.224.5.5.5h6c.276,0,.5-.224.5-.5s-.224-.5-.5-.5h-2.5v-7.941l3.221.358c.028.003.056.008.083.014,0,0-1.304,3.51-1.304,3.569,0,1.103.897,2,2,2s2-.897,2-2c0-.138,0-.326-1.265-3.508Zm-8.77,2.508h-1.932l.966-2.576.966,2.576Zm8.048-1.613c.883,2.24.979,2.611.986,2.613h-1.966l.98-2.613Zm-13.014-4.387c3.309,0,6-2.691,6-6S12.309,0,9,0,3,2.691,3,6s2.691,6,6,6Zm0-11c2.757,0,5,2.243,5,5s-2.243,5-5,5-5-2.243-5-5S6.243,1,9,1Zm1,13.5c0,.276-.224.5-.5.5-4.607,0-8.5,3.778-8.5,8.25v.25c0,.276-.224.5-.5.5s-.5-.224-.5-.5v-.25c0-5.014,4.351-9.25,9.5-9.25.276,0,.5.224.5.5Z"/>
</symbol><symbol viewBox="0 0 100 90" id="maletin">
  <g stroke="#1f2937" stroke-width="2" stroke-linecap="round" stroke-linejoin="round" opacity="0.08">
    <rect x="20" y="40" width="80" height="50" rx="8"/>
    <path d="M45 40 v-8 h30 v8"/>
    <line x1="20" y1="60" x2="100" y2="60"/>
  </g>
</symbol><symbol viewBox="0 0 24 24.001333" id="mujer-abogada">
  <path d="m.995,15.001c.325.05.544-.147.596-.381.442-2.005,1.154-5.238,1.587-7.197.641,2.623,3.005,4.577,5.823,4.577,1.645,0,3.235-.687,4.364-1.883.189-.2.18-.517-.021-.706-.201-.19-.517-.181-.707.021-.954,1.012-2.246,1.568-3.636,1.568-2.415,0-4.435-1.722-4.899-4.002h.914c3.161-.094,5.87-2.207,6.803-5.19,1.267.803,2.209,2.165,2.635,3.946.032.135.496,2.233.963,4.353.059.27.324.437.596.381.27-.06.44-.326.381-.596-.469-2.129-.935-4.235-.967-4.37-.813-3.406-3.275-5.522-6.425-5.522-.315,0-.621.032-.923.079C5.377.454,3.306,2.459,2.575,5.521c-.066.278-1.884,8.532-1.961,8.884-.06.27.111.536.381.596ZM9,1c.682,0,1.325.123,1.918.35-.756,2.666-3.142,4.565-5.918,4.647h-.999c0-2.755,2.244-4.997,5-4.997Zm1,13.5c0,.276-.224.5-.5.5-4.607,0-8.5,3.778-8.5,8.25v.25c0,.276-.224.5-.5.5s-.5-.224-.5-.5v-.25c0-5.014,4.351-9.25,9.5-9.25.276,0,.5.224.5.5Zm12.735.992c-.235-.591-.773-1-1.405-1.069l-3.33-.37v-1.553c0-.276-.224-.5-.5-.5s-.5.224-.5.5v1.441l-3.171-.353c-.69-.076-1.329.319-1.571.964,0,0-1.258,3.388-1.258,3.447,0,1.103.897,2,2,2s2-.897,2-2c0-.06-1.246-3.413-1.246-3.413l3.246.361v8.052h-2.5c-.276,0-.5.224-.5.5s.224.5.5.5h6c.276,0,.5-.224.5-.5s-.224-.5-.5-.5h-2.5v-7.941l3.221.358c.028.003.056.008.083.014,0,0-1.304,3.51-1.304,3.569,0,1.103.897,2,2,2s2-.897,2-2c0-.138,0-.326-1.265-3.508Zm-8.77,2.508h-1.932l.966-2.576.966,2.576Zm7.068,1l.98-2.613c.883,2.24.979,2.611.986,2.613h-1.966Z"/>
</symbol><symbol viewBox="0 0 24.003332 24" id="subasta">
  <path d="m14.85,15.452l-.875.874c-.195.195-.195.512,0,.707.098.098.226.146.354.146s.256-.049.354-.146l7.676-7.675c.195-.195.195-.512,0-.707s-.512-.195-.707,0l-.944.944L12.918,1.807l.944-.944c.195-.195.195-.512,0-.707s-.512-.195-.707,0l-7.676,7.676c-.195.195-.195.512,0,.707.098.098.226.146.354.146s.256-.049.354-.146l.875-.875,3.534,3.534L.146,21.646c-.195.195-.195.512,0,.707.098.098.226.146.354.146s.256-.049.354-.146l10.449-10.449,3.547,3.547Zm3.109-7.19l-4.442,4.442-3.708-3.708,4.443-4.442,3.708,3.708Zm-2.402,6.483l-1.333-1.333,4.442-4.442,1.333,1.333-4.443,4.442Zm-3.346-12.231l1.333,1.333-4.443,4.442-1.333-1.333,4.442-4.442Zm11.289,20.486h-.5c0-1.654-1.346-3-3-3h-7c-1.654,0-3,1.346-3,3h-.5c-.276,0-.5.224-.5.5s.224.5.5.5h14c.276,0,.5-.224.5-.5s-.224-.5-.5-.5Zm-10.5-2h7c1.103,0,2,.897,2,2h-11c0-1.103.897-2,2-2Z"/>
</symbol></svg>